<svg width="132" height="209" viewBox="0 0 132 209" fill="none" xmlns="http://www.w3.org/2000/svg">
<path d="M96.5566 153.834L96.5533 153.92L100.474 199H71.8639L68.1554 171.313L66.5231 198.29L37.1426 197.935L40.2634 162.517L42.9175 146.1V146.096L43.3158 143.626H95.7764L95.845 144.52L96.5566 153.834Z" fill="#2F2E41"/>
<path d="M20.9481 179.968C23.9781 180.568 27.1377 176.857 28.0052 171.68C28.3849 169.414 28.2623 167.242 27.7505 165.466L28.2151 162.481L36.0118 122.332C36.0118 122.332 50.3692 91.1037 50.3688 85.6823C50.3685 80.261 46.2156 77.6023 46.2156 77.6023L40.596 77.6594L22.9733 124.46L19.7995 159.044L19.2861 163.789C18.2311 165.255 17.4121 167.24 17.0325 169.506C16.1649 174.684 17.918 179.367 20.9481 179.968Z" fill="#FFB6B6"/>
<path d="M78.1127 58.2567L72.8895 45.123L55.9141 48.3177L54.7715 63.7698L78.1127 58.2567Z" fill="#FFB6B6"/>
<path opacity="0.1" d="M78.1127 58.2567L72.8895 45.123L55.9141 48.3177L54.7715 63.7698L78.1127 58.2567Z" fill="black"/>
<path d="M115.001 85.589C115.001 85.589 102.922 61.0964 100.637 58.6117C99.6194 57.5056 98.0203 57.4902 96.5583 57.8126L79.7438 51.5124L74.0447 48.0305L73.6691 54.6549L54.9584 58.3065C55.0624 54.2667 55.5865 52.7302 55.5865 52.7302L48.731 61.4514L35.3465 68.5507L35.3539 68.6146C34.3716 68.9874 33.4404 69.6253 32.7349 70.6805C30.1233 74.5851 22.9414 122.15 22.9414 122.15L38.2846 125.7L40.3727 111.452L41.8755 124.28L43.0181 148.24C43.0181 148.24 63.911 167.763 74.0309 160.664C84.1509 153.565 96.556 153.919 96.556 153.919L96.8656 142.813C97.0859 142.431 97.2089 142.206 97.2089 142.206L96.8825 102.81V92.3275C99.3695 96.0949 102.371 99.3348 105.86 100.852C117.286 105.822 115.001 85.589 115.001 85.589Z" fill="#E6E6E6"/>
<path d="M62.6267 50.6285C71.2517 50.6285 78.2436 43.0259 78.2436 33.6476C78.2436 24.2692 71.2517 16.6666 62.6267 16.6666C54.0017 16.6666 47.0098 24.2692 47.0098 33.6476C47.0098 43.0259 54.0017 50.6285 62.6267 50.6285Z" fill="#FFB6B6"/>
<path d="M73.8313 38.4466C73.8313 38.4466 75.1892 33.2785 78.2447 33.6477C81.3002 34.0168 81.9792 31.0636 81.3002 29.587C80.6212 28.1104 79.2632 20.7274 79.2632 20.7274C79.2632 20.7274 79.9422 15.5593 75.8682 14.821C71.7943 14.0827 70.4363 13.3444 69.7573 11.8678C69.0783 10.3912 58.8933 8.91456 55.4984 11.1295C52.1034 13.3444 49.3874 17.594 47.0109 18.7915C44.6344 19.9891 42.5974 22.204 43.9554 25.8955C45.3134 29.587 47.2829 36.8068 47.2829 36.8068C47.2829 36.8068 50.7454 35.4934 51.4244 37.7083C52.1034 39.9232 49.3874 36.97 52.7824 31.0636C56.1774 25.1572 56.1774 19.2508 61.6093 21.4657C67.0413 23.6806 73.1523 22.9423 72.4733 27.3721C71.7943 31.8019 73.8313 38.4466 73.8313 38.4466Z" fill="#2F2E41"/>
<path d="M87.3443 51.9356C96.1293 51.9356 103.251 44.3551 103.251 35.004C103.251 25.6528 96.1293 18.0723 87.3443 18.0723C78.5592 18.0723 71.4375 25.6528 71.4375 35.004C71.4375 44.3551 78.5592 51.9356 87.3443 51.9356Z" fill="#6C63FF"/>
<path d="M92.7425 26.4635C90.6248 30.6564 88.5071 34.8493 86.3895 39.0422C85.0398 36.4492 83.6975 33.8516 82.3445 31.2606C81.8772 30.3658 80.6062 31.1706 81.0746 32.0677C82.6431 35.0712 84.1952 38.0847 85.7637 41.0883C86.0318 41.6018 86.7681 41.6137 87.0335 41.0883C89.3598 36.4823 91.6861 31.8764 94.0124 27.2705C94.4682 26.368 93.1987 25.5603 92.7425 26.4635Z" fill="white"/>
<path d="M109.304 79.6338L93.4562 71.3903C93.4562 71.3903 92.8197 65.8729 89.8476 63.9049C89.3423 62.5942 88.761 61.1542 88.233 60.0133C86.9272 57.1918 88.8859 51.8673 87.2536 51.8673C85.6214 51.8673 83.2085 57.467 83.3362 58.9666C83.4342 60.1177 84.3092 62.1274 84.49 63.8867C82.4996 64.7029 80.8939 66.102 79.8382 67.2159C78.9246 68.1799 78.5851 69.6182 78.9421 70.9468C79.9768 74.7972 82.563 82.7492 86.2743 82.7492C91.171 82.7492 92.4768 81.6843 92.4768 81.6843C92.4768 81.6843 102.597 95.5279 110.105 96.5927C117.614 97.6576 109.304 79.6338 109.304 79.6338Z" fill="#FFB6B6"/>
</svg>
