<svg width="20" height="16" viewBox="0 0 20 16" fill="none" xmlns="http://www.w3.org/2000/svg">
<path d="M2.92835 15.8193H17.2853C19.0031 15.8193 20 14.8224 20 12.9176V3.08231C20 1.17755 18.9942 0.180664 17.0717 0.180664H2.71473C0.996885 0.180664 0 1.16865 0 3.08231V12.9176C0 14.8224 1.00579 15.8193 2.92835 15.8193ZM8.99866 8.30705L2.51891 1.89851C2.64352 1.87181 2.78594 1.85401 2.93725 1.85401H17.0627C17.223 1.85401 17.3654 1.87181 17.4989 1.90741L11.028 8.30705C10.6542 8.67199 10.3427 8.8322 10.0134 8.8322C9.68402 8.8322 9.3725 8.66308 8.99866 8.30705ZM1.66444 3.20692L6.50645 7.96883L1.66444 12.7574V3.20692ZM13.5202 7.96883L18.3356 3.23362V12.7396L13.5202 7.96883ZM2.93725 14.1371C2.77704 14.1371 2.62572 14.1192 2.49221 14.0925L7.59235 9.03692L8.07299 9.51756C8.72274 10.1495 9.34579 10.4165 10.0134 10.4165C10.672 10.4165 11.304 10.1495 11.9448 9.51756L12.4344 9.03692L17.5256 14.0836C17.3832 14.1192 17.2319 14.1371 17.0627 14.1371H2.93725Z" fill="black"/>
</svg>
