<svg width="293" height="192" viewBox="0 0 293 192" fill="none" xmlns="http://www.w3.org/2000/svg">
<g clip-path="url(#clip0_120_1335)">
<path d="M270.336 92.712H32.7449C29.5603 92.712 26.9694 90.1196 26.9694 86.9327V5.77894C26.9694 2.59242 29.5603 0 32.7449 0H270.336C273.52 0 276.111 2.59242 276.111 5.77894V86.9327C276.111 90.1196 273.52 92.712 270.336 92.712ZM32.7449 0.688979C29.94 0.688979 27.6579 2.9724 27.6579 5.77894V86.9327C27.6579 89.7395 29.94 92.023 32.7449 92.023H270.336C273.141 92.023 275.423 89.7395 275.423 86.9327V5.77894C275.423 2.9724 273.141 0.688979 270.336 0.688979H32.7449Z" fill="#3F3D56"/>
<path d="M293 189.661H0V190.241H293V189.661Z" fill="#E6E6E6"/>
<path d="M293 160.035H0V160.615H293V160.035Z" fill="#E6E6E6"/>
<path d="M133.528 95.6965C133.739 98.3422 135.274 100.378 136.956 100.244C138.639 100.11 139.832 97.8562 139.621 95.2097C139.551 94.1513 139.229 93.1251 138.682 92.2168L137.649 81.0183L132.407 81.6153L133.982 92.5916C133.585 93.5755 133.43 94.6401 133.528 95.6965Z" fill="#FFB6B6"/>
<path d="M127.267 43.4515C127.267 43.4515 132.166 40.8562 134.651 44.7346C137.136 48.613 138.85 90.5589 138.85 90.5589L131.964 91.2946L130.659 61.7365L127.267 43.4515Z" fill="#E6E6E6"/>
<path d="M117.097 157.846L121.086 157.846L122.984 142.449L117.096 142.45L117.097 157.846Z" fill="#FFB6B6"/>
<path d="M130.765 157.756C130.889 157.965 130.955 158.641 130.955 158.884C130.955 159.632 130.349 160.239 129.601 160.239H117.246C116.736 160.239 116.322 159.825 116.322 159.315V158.8C116.322 158.8 115.711 157.253 116.969 155.347C116.969 155.347 118.533 156.84 120.87 154.501L121.559 153.252L126.548 156.903L129.313 157.243C129.917 157.318 130.454 157.231 130.765 157.756Z" fill="#2F2E41"/>
<path d="M140.183 157.186L144.048 156.197L142.078 140.809L136.374 142.268L140.183 157.186Z" fill="#FFB6B6"/>
<path d="M153.403 153.713C153.575 153.885 153.806 154.523 153.866 154.759C154.051 155.484 153.614 156.222 152.889 156.407L140.919 159.467C140.425 159.593 139.922 159.295 139.796 158.8L139.668 158.301C139.668 158.301 138.694 156.954 139.441 154.795C139.441 154.795 141.326 155.854 143.011 153.01L143.37 151.629L149.106 153.931L151.869 153.576C152.474 153.498 152.972 153.282 153.403 153.713Z" fill="#2F2E41"/>
<path d="M113.796 40.1416L113.607 38.7682L115.855 33.2743L122.032 32.5875L123.366 40.4528L113.796 40.1416Z" fill="#FFB6B6"/>
<path opacity="0.1" d="M113.796 40.1416L113.607 38.7682L115.855 33.2743L122.032 32.5875L123.366 40.4528L113.796 40.1416Z" fill="black"/>
<path d="M106.59 78.9424L103.844 86.4965L105.903 90.6169L116.198 150.363H123.043L121.689 97.4843L137.475 150.363H144.249L138.802 114.653L134.729 81.6893L132.26 80.1626L120.316 73.4485L106.59 78.9424Z" fill="#2F2E41"/>
<path d="M124.091 84.0928L119.973 84.7796L114.483 71.7316H126.837L124.091 84.0928Z" fill="#E6E6E6"/>
<path d="M132.327 80.6592L124.091 84.0929L121.346 77.9123L119.973 84.7796L105.56 80.1373L107.619 71.7316L105.56 44.2621L112.829 39.4137L113.796 38.7682L122.719 39.4549L123.501 39.8807L128.896 42.8886L130.268 65.551L132.327 80.6592Z" fill="#2F2E41"/>
<path d="M123.501 39.8807L119.63 56.28L112.829 39.4137L113.796 38.7682L122.719 39.4549L123.501 39.8807Z" fill="#E6E6E6"/>
<path d="M116.885 38.7682L115.512 41.1336L116.885 41.9221L116.198 56.3227L118.944 60.0571L121.689 54.5377L119.63 41.9221L120.316 38.7682H116.885Z" fill="#2F2E41"/>
<path d="M118.944 37.3947C122.545 37.3947 125.464 34.4738 125.464 30.8707C125.464 27.2676 122.545 24.3467 118.944 24.3467C115.343 24.3467 112.424 27.2676 112.424 30.8707C112.424 34.4738 115.343 37.3947 118.944 37.3947Z" fill="#FFB6B6"/>
<path d="M114.777 31.443L116.186 32.0582L116.801 28.367C116.801 28.367 119.26 27.1366 121.104 27.7518C122.949 28.367 126.023 27.7518 126.023 27.7518C126.023 27.7518 126.023 21.5997 121.719 21.5997C117.415 21.5997 113.112 22.2149 113.112 24.0605C113.112 25.9062 111.267 27.7518 111.267 27.7518C111.267 27.7518 108.808 31.443 111.267 33.9038C113.726 36.3646 114.956 36.3646 114.956 36.3646L114.777 31.443Z" fill="#2F2E41"/>
<path d="M102.125 95.5035C102.054 98.1565 103.364 100.344 105.052 100.389C106.739 100.434 108.164 98.3206 108.236 95.6666C108.279 94.6068 108.067 93.5521 107.619 92.5908L107.78 81.3459L102.505 81.3828L102.906 92.4644C102.407 93.4005 102.139 94.4426 102.125 95.5035Z" fill="#FFB6B6"/>
<path d="M108.652 42.8758C108.652 42.8758 104.191 41.5023 102.132 45.6227C100.073 49.7431 102.818 91.6342 102.818 91.6342H109.744L107.906 62.1044L108.652 42.8758Z" fill="#E6E6E6"/>
<path d="M279.787 120.919L263.151 115.823C262.783 115.71 262.397 115.669 262.013 115.702L177.697 122.882C176.494 122.984 176.192 124.606 177.277 125.135L179.978 126.452H179.906V189.477H182.451V127.657L190.915 131.783C191.563 132.099 192.286 132.228 193.003 132.156L193.903 132.064V189.477H196.448V131.807L261.663 125.216V189.477H264.208V124.959L275.024 123.866V189.477H277.569V123.608L279.542 123.409C280.927 123.269 281.119 121.326 279.787 120.919Z" fill="#3F3D56"/>
<path d="M202.174 122.632C203.765 122.632 227.306 119.767 227.306 119.767L230.805 124.542L206.31 129.317L202.174 122.632Z" fill="white"/>
<path d="M228.011 187.029L223.921 187.022L222.002 171.233L228.039 171.244L228.011 187.029Z" fill="#A0616A"/>
<path d="M213.998 186.912C213.871 187.126 213.802 187.819 213.802 188.069C213.8 188.836 214.421 189.459 215.188 189.46L227.854 189.482C228.377 189.483 228.801 189.059 228.802 188.536L228.803 188.008C228.803 188.008 229.432 186.423 228.146 184.467C228.146 184.467 226.54 185.994 224.148 183.593L223.444 182.311L218.323 186.045L215.488 186.389C214.868 186.464 214.318 186.375 213.998 186.912Z" fill="#2F2E41"/>
<path d="M249.962 179.687L246.735 182.122L235.811 170.828L240.574 167.233L249.962 179.687Z" fill="#A0616A"/>
<path d="M238.851 187.959C238.879 188.204 239.238 188.79 239.386 188.987C239.842 189.592 240.703 189.713 241.307 189.256L251.3 181.714C251.713 181.402 251.795 180.815 251.484 180.402L251.17 179.986C251.17 179.986 250.721 178.362 248.54 177.588C248.54 177.588 248.186 179.75 244.87 179.285L243.551 178.696L241.742 184.694L239.714 186.657C239.27 187.087 238.783 187.345 238.851 187.959Z" fill="#2F2E41"/>
<path d="M241.414 98.0898C241.414 101.864 238.357 104.923 234.585 104.923C230.813 104.923 227.756 101.864 227.756 98.0898C227.756 94.316 230.813 91.2567 234.585 91.2567C238.357 91.2567 241.414 94.316 241.414 98.0898Z" fill="#A0616A"/>
<path d="M240.771 137.488C240.771 137.488 215.627 136.064 214.204 138.912C212.78 141.76 221.898 180.882 221.898 180.882L230.032 179.177L226.064 151.729C226.064 151.729 247.046 157.289 249.892 150.643C252.739 143.997 251.919 141.523 251.919 141.523L240.771 137.488Z" fill="#2F2E41"/>
<path d="M247.213 132.707C247.213 132.707 222.588 137.989 221.969 141.113C221.349 144.236 240.485 179.551 240.485 179.551L247.878 175.753L236.795 150.333C236.795 150.333 258.499 150.142 259.488 142.979C260.476 135.817 259.031 133.647 259.031 133.647L247.213 132.707Z" fill="#2F2E41"/>
<path d="M250.022 105.921H238.191L230.096 119.212C230.096 119.212 228.199 127.802 230.096 128.729C231.994 129.656 231.994 139.624 231.994 139.624L251.919 141.523C251.919 141.523 254.766 111.617 253.817 108.769C252.868 105.921 250.022 105.921 250.022 105.921Z" fill="#6C63FF"/>
<path d="M231.282 114.703L230.096 128.729L216.756 123.064L213.572 121.461C212.949 120.648 212.139 119.995 211.212 119.559C208.906 118.434 206.458 118.713 205.743 120.181C205.028 121.648 206.318 123.749 208.623 124.873C209.538 125.335 210.55 125.571 211.575 125.561L220.891 130.855L220.902 130.834L220.943 130.908L235.552 137.013L238.913 118.601L231.282 114.703Z" fill="#A0616A"/>
<path d="M229.859 99.0379C229.859 99.0379 222.743 99.9873 225.589 93.8163C225.589 93.8163 225.155 90.471 227.27 90.2449C229.385 90.0187 232.231 86.2212 232.231 86.2212C232.231 86.2212 238.757 82.8984 242.136 86.2212C245.515 89.5441 255.478 109.006 255.478 109.006L248.836 116.127C248.836 116.127 244.843 105.624 240.197 106.84C235.552 108.057 231.282 111.685 231.282 111.685C231.282 111.685 226.568 109.324 228.688 107.266C230.808 105.209 229.859 99.0379 229.859 99.0379Z" fill="#2F2E41"/>
<path d="M239.347 109.481C239.347 109.481 236.027 105.209 233.654 108.532C231.282 111.855 229.385 116.127 229.385 116.127L238.873 119.45L239.347 109.481Z" fill="#6C63FF"/>
<path d="M275.373 188.532L264.349 153.473L264.351 153.473H264.376L264.332 153.416L264.331 153.414L263.546 150.917L263.546 150.917C264.742 149.886 265.557 148.412 265.719 146.715L260.68 118.984C261.027 115.343 258.237 112.16 254.581 112.029L243.212 112.001C239.98 111.886 237.18 114.222 236.709 117.425L236.458 119.124L232.975 142.835C232.847 143.688 232.898 144.528 233.099 145.315L230.592 145.643L229.832 145.744L226.825 146.136L226.816 146.139L226.441 146.187H226.033V156.373H226.059V188.929C226.059 189.139 226.231 189.311 226.441 189.311C226.654 189.311 226.825 189.139 226.825 188.929V156.373H231.286L235.736 188.891C235.765 189.082 235.927 189.222 236.118 189.222C236.134 189.222 236.153 189.222 236.169 189.219C236.379 189.19 236.525 188.996 236.496 188.786L232.062 156.373H253.462C255.587 156.373 257.556 155.698 259.159 154.543L267.644 188.831C267.688 189.005 267.844 189.12 268.015 189.12C268.046 189.12 268.078 189.116 268.109 189.108C268.314 189.056 268.438 188.847 268.386 188.642L259.819 154.022C259.933 153.927 260.047 153.826 260.155 153.721L263.561 153.521L274.642 188.762C274.694 188.926 274.845 189.03 275.008 189.03C275.046 189.03 275.084 189.025 275.123 189.013C275.324 188.949 275.437 188.734 275.373 188.532ZM262.818 151.461C262.846 151.445 262.872 151.426 262.897 151.41L262.979 151.67L262.818 151.461Z" fill="#E6E6E6"/>
<path d="M59.0677 129.106L66.4867 124.385L69.503 126.205L59.0677 138.203V129.106Z" fill="#FFB6B6"/>
<path d="M48.9222 110.833C48.9222 110.833 43.9945 111.994 46.3134 118.664C48.6324 125.335 56.169 139.257 58.4879 138.387C60.8069 137.517 61.0968 128.816 61.0968 128.816C61.0968 128.816 60.8069 129.106 59.6474 127.946C58.4879 126.786 58.4879 127.315 58.4879 126.035C58.4879 124.755 57.5396 123.806 57.5396 123.806L56.4588 121.565C56.4588 121.565 56.4588 111.123 52.1108 110.543C47.7628 109.963 48.9222 110.833 48.9222 110.833Z" fill="#E6E6E6"/>
<path d="M71.945 125.894C73.8694 123.968 74.4659 121.443 73.2773 120.254C72.0887 119.064 69.5651 119.661 67.6406 121.587C65.7162 123.512 65.1197 126.037 66.3084 127.227C67.497 128.416 70.0206 127.819 71.945 125.894Z" fill="#FFB6B6"/>
<path d="M29.7285 149.264L34.7909 157.648L64.2927 155.901L56.4372 145.77L29.7285 149.264Z" fill="#E6E6E6"/>
<path d="M38.5437 188.477C38.3718 188.477 38.2222 188.35 38.1982 188.175L29.3826 123.753C29.3564 123.562 29.4901 123.386 29.6811 123.36C29.872 123.332 30.0481 123.467 30.0744 123.658L38.89 188.08C38.9162 188.271 38.7825 188.448 38.5915 188.474C38.5754 188.476 38.5594 188.477 38.5437 188.477Z" fill="#E6E6E6"/>
<path d="M29.7285 188.559C29.5357 188.559 29.3794 188.402 29.3794 188.209V123.718C29.3794 123.525 29.5357 123.369 29.7285 123.369C29.9213 123.369 30.0777 123.525 30.0777 123.718V188.209C30.0777 188.402 29.9213 188.559 29.7285 188.559Z" fill="#E6E6E6"/>
<path d="M73.981 188.302C73.8326 188.302 73.6949 188.207 73.648 188.058L52.7874 121.715C52.7295 121.53 52.8317 121.334 53.0156 121.276C53.1995 121.219 53.3956 121.321 53.4534 121.505L74.3141 187.848C74.372 188.032 74.2698 188.228 74.0858 188.286C74.051 188.297 74.0157 188.302 73.981 188.302Z" fill="#E6E6E6"/>
<path d="M67.6092 188.384C67.4533 188.384 67.3113 188.279 67.271 188.121L52.782 129.568C52.7345 129.381 52.8475 129.191 53.0343 129.144C53.2218 129.096 53.4112 129.209 53.4588 129.396L67.9478 187.949C67.9953 188.136 67.8823 188.326 67.6955 188.373C67.6666 188.381 67.6376 188.384 67.6092 188.384Z" fill="#E6E6E6"/>
<path d="M29.7285 124.745L53.906 124.373L58.3574 149.788H30.0776L29.7285 124.745Z" fill="#E6E6E6"/>
<path d="M66.8833 162.115L60.7901 172.849L67.8647 174.408L70.8142 166.773L66.8833 162.115Z" fill="#FFB6B6"/>
<path d="M62.9786 170.823C62.9786 170.823 62.7418 169.072 61.3499 169.628C59.9579 170.183 55.9407 172.248 55.9407 172.248C55.9407 172.248 66.4186 189.283 68.4071 188.489C70.3956 187.696 68.0152 182.88 68.0152 182.88L68.5406 174.369L62.9786 170.823Z" fill="#2F2E41"/>
<path d="M39.9363 141.288C39.9363 141.288 37.7623 151.294 44.4293 154.774C51.0963 158.255 73.851 149.699 73.851 149.699L63.4157 165.344L70.6625 168.261C70.6625 168.261 87.185 146.508 86.0255 143.028C84.8661 139.547 77.0396 139.257 77.0396 139.257L59.3576 140.127L54.7197 138.677L39.9363 141.288Z" fill="#2F2E41"/>
<path d="M57.869 166.879L48.29 174.659L54.3129 178.686L59.8365 172.649L57.869 166.879Z" fill="#FFB6B6"/>
<path d="M51.0654 173.568C51.0654 173.568 51.4815 171.851 49.9829 171.862C48.4844 171.873 43.9918 172.333 43.9918 172.333C43.9918 172.333 47.5562 192.015 49.697 192C51.8377 191.985 51.3718 186.633 51.3718 186.633L54.9566 178.896L51.0654 173.568Z" fill="#2F2E41"/>
<path d="M40.3439 137.668C40.3439 137.668 34.6799 146.197 39.6241 151.866C44.5683 157.535 68.8747 157.851 68.8747 157.851L53.4652 168.624L59.1541 173.98C59.1541 173.98 82.4548 159.734 82.6406 156.07C82.8263 152.406 75.6419 149.286 75.6419 149.286L58.8556 143.659L55.063 140.619L40.3439 137.668Z" fill="#2F2E41"/>
<path d="M54.8943 117.913C54.8943 117.913 49.3868 115.883 46.7779 115.883C46.5286 115.883 46.2823 115.912 46.0359 115.964C44.3662 116.318 42.8299 117.754 42.0937 118.537C41.8067 118.844 41.6415 119.05 41.6415 119.05C41.6415 119.05 41.6589 118.85 41.6936 118.499C41.8647 116.655 42.4966 110.601 43.63 106.727C44.0358 105.343 44.5025 104.238 45.0387 103.701C46.2881 102.448 46.8649 100.946 47.1316 99.8265C47.3577 98.8664 47.3577 98.1907 47.3577 98.1907L45.2445 97.2799L44.8532 94.7218C44.7836 95.0234 44.4619 95.6122 43.3807 96.7405C43.2879 96.8362 43.1864 96.9174 43.0792 96.987C41.5197 97.9673 38.3398 96.2619 36.6267 95.1887C37.3398 92.7089 38.6326 90.4408 40.9805 90.0695C46.4881 89.1994 46.4881 86.009 49.9665 89.4895C50.2535 89.7766 50.5433 90.0521 50.8332 90.319C51.9463 92.4479 52.3521 95.3019 52.497 97.2857C52.6014 98.675 52.5753 99.6408 52.5753 99.6408C52.5753 99.6408 54.0247 108.342 56.3436 110.082C58.6626 111.823 54.8943 117.913 54.8943 117.913Z" fill="#2F2E41"/>
<path d="M44.1691 103.991L40.2524 109.74L49.0969 112.113V103.991H44.1691Z" fill="#FFB6B6"/>
<path opacity="0.1" d="M44.1691 103.991L40.2524 109.74L49.0969 112.113V103.991H44.1691Z" fill="black"/>
<path d="M49.647 109.528L41.2408 106.048C41.2408 106.048 29.9359 110.979 30.8055 120.55C31.6751 130.121 39.7914 146.653 39.7914 146.653L56.0241 139.692L54.2849 121.13L49.647 109.528Z" fill="#E6E6E6"/>
<path d="M46.0427 106.558C50.1386 106.558 53.459 103.236 53.459 99.1372C53.459 95.0389 50.1386 91.7166 46.0427 91.7166C41.9468 91.7166 38.6264 95.0389 38.6264 99.1372C38.6264 103.236 41.9468 106.558 46.0427 106.558Z" fill="#FFB6B6"/>
<path d="M56.0538 96.4504C54.6044 97.9006 53.4449 99.3508 53.4449 99.3508L52.8652 97.0305C52.8652 97.0305 52.7318 97.1291 52.4971 97.2857C51.5782 97.9122 49.1114 99.4871 47.1316 99.8265C46.2504 99.9773 45.4677 99.8816 44.9576 99.3508C43.8764 98.2226 43.5546 97.6338 43.485 97.3321L43.0937 99.8903L40.9806 100.801C40.9806 100.801 40.9806 103.986 43.2995 106.312C43.4126 106.425 43.5227 106.564 43.63 106.727C44.7373 108.397 45.5315 112.487 46.0359 115.964C46.4823 119.056 46.6968 121.661 46.6968 121.661C46.6968 121.661 44.5025 118.911 42.0937 118.537C41.9603 118.517 41.827 118.502 41.6936 118.499C41.6502 118.493 41.6038 118.493 41.5603 118.493C38.9515 118.493 33.444 120.524 33.444 120.524C33.444 120.524 29.6757 114.433 31.9946 112.693C34.3136 110.952 35.7629 102.251 35.7629 102.251C35.7629 102.251 35.6673 98.5271 36.6267 95.1887C37.3398 92.7089 38.6326 90.4408 40.9806 90.0696C46.4881 89.1994 46.4881 86.009 49.9665 89.4895C50.2535 89.7766 50.5433 90.0522 50.8332 90.319C54.0739 93.3006 57.3843 95.1191 56.0538 96.4504Z" fill="#2F2E41"/>
<path d="M23.5265 135.384H20.7722V189.814H23.5265V135.384Z" fill="#3F3D56"/>
<path d="M90.3181 135.384H87.5638V189.814H90.3181V135.384Z" fill="#3F3D56"/>
<path d="M72.7595 112.304H54.5123V130.562H72.7595V112.304Z" fill="#6C63FF"/>
<path d="M43.9945 131.716L51.4136 126.995L54.4298 128.816L43.9945 140.814V131.716Z" fill="#FFB6B6"/>
<path d="M33.8491 113.444C33.8491 113.444 28.9213 114.604 31.2402 121.275C33.5592 127.946 41.0958 141.868 43.4147 140.998C45.7337 140.127 46.0236 131.426 46.0236 131.426C46.0236 131.426 45.7337 131.716 44.5742 130.556C43.4147 129.396 43.4147 129.926 43.4147 128.646C43.4147 127.366 42.4664 126.417 42.4664 126.417L41.3857 124.175C41.3857 124.175 41.3857 113.734 37.0376 113.154C32.6896 112.574 33.8491 113.444 33.8491 113.444Z" fill="#E6E6E6"/>
<path d="M56.8718 128.504C58.7962 126.578 59.3927 124.053 58.2041 122.864C57.0155 121.675 54.4919 122.272 52.5675 124.197C50.6431 126.123 50.0466 128.648 51.2352 129.837C52.4238 131.026 54.9474 130.429 56.8718 128.504Z" fill="#FFB6B6"/>
<path d="M95.8268 133.317H12.5093V139.518H95.8268V133.317Z" fill="#3F3D56"/>
<path d="M180.477 83.7109H168.172C167.196 83.7109 166.406 84.5021 166.406 85.4781V90.556C166.406 91.532 167.196 92.3232 168.172 92.3232H180.477C181.452 92.3232 182.243 91.532 182.243 90.556V85.4781C182.243 84.5021 181.452 83.7109 180.477 83.7109Z" fill="#3F3D56"/>
<path d="M206.298 88.7887H193.993C193.018 88.7887 192.227 89.5799 192.227 90.5559V90.5559C192.227 91.5319 193.018 92.3231 193.993 92.3231H206.298C207.274 92.3231 208.064 91.5319 208.064 90.5559V90.5559C208.064 89.5799 207.274 88.7887 206.298 88.7887Z" fill="#6C63FF"/>
</g>
<defs>
<clipPath id="clip0_120_1335">
<rect width="293" height="192" fill="white"/>
</clipPath>
</defs>
</svg>
