<svg width="250" height="245" viewBox="0 0 250 245" fill="none" xmlns="http://www.w3.org/2000/svg">
<g clip-path="url(#clip0_120_1334)">
<path d="M77.2009 179.071H45.8854C45.0959 179.071 44.4536 178.429 44.4536 177.639C44.4536 176.85 45.0959 176.208 45.8854 176.208H77.2009C77.9904 176.208 78.6325 176.85 78.6325 177.639C78.6325 178.429 77.9904 179.071 77.2009 179.071Z" fill="#6C63FF"/>
<path d="M21.2729 186.736C21.2729 186.993 21.4795 187.199 21.7367 187.199H101.349C101.607 187.199 101.813 186.993 101.813 186.736C101.813 186.478 101.607 186.272 101.349 186.272H21.7367C21.4795 186.272 21.2729 186.478 21.2729 186.736Z" fill="#3F3D56"/>
<path d="M189.243 93.2964C203.233 93.2964 214.574 81.9554 214.574 67.9656C214.574 53.9759 203.233 42.6349 189.243 42.6349C175.253 42.6349 163.912 53.9759 163.912 67.9656C163.912 81.9554 175.253 93.2964 189.243 93.2964Z" fill="#FF6884"/>
<path d="M0 218.744C0 219.001 0.206555 219.208 0.463771 219.208H204.002C204.259 219.208 204.466 219.001 204.466 218.744C204.466 218.487 204.259 218.28 204.002 218.28H0.463771C0.206555 218.28 0 218.487 0 218.744Z" fill="#3F3D56"/>
<path d="M2.94416 187.427L2.29306 186.713L65.8397 128.727L88.7343 138.99L113.457 96.5928L133.769 86.802L152.589 118.168C162.75 91.8637 188.231 64.3431 218.765 36.4215L219.516 37.0297C190.879 64.4471 166.377 91.9889 152.471 119.85L135.064 90.7517C134.241 89.377 132.513 88.8461 131.061 89.5218C119.958 94.688 110.697 103.121 104.516 113.692L89.0296 140.181L85.4945 138.596C73.6716 133.296 59.8309 135.518 50.2601 144.251L2.94416 187.427Z" fill="#3F3D56"/>
<path d="M220.198 41.7007L219.233 41.7677L217.676 38.3938L214.19 37.6858L214.055 36.7282L219.801 35.9117L220.198 41.7007Z" fill="#3F3D56"/>
<path d="M121.075 62.3449L124.491 49.213L137.798 48.5729L141.779 66.6748L121.075 62.3449Z" fill="#FFB6B6"/>
<path opacity="0.1" d="M121.075 62.3449L124.491 49.213L137.798 48.5729L141.779 66.6748L121.075 62.3449Z" fill="black"/>
<path d="M129.831 56.5619C138.702 56.5619 145.893 49.3706 145.893 40.4998C145.893 31.6289 138.702 24.4376 129.831 24.4376C120.96 24.4376 113.769 31.6289 113.769 40.4998C113.769 49.3706 120.96 56.5619 129.831 56.5619Z" fill="#FFB6B6"/>
<path d="M138.693 43.8996C138.693 43.8996 132.592 31.81 125.442 32.508C118.293 33.206 114.527 34.0549 114.527 34.0549C114.527 34.0549 112.405 24.6389 122.396 21.0171C122.396 21.0171 109.692 8.49438 124.817 2.35145C139.942 -3.79149 148.405 4.04305 148.405 4.04305C148.405 4.04305 159.601 15.2195 145.5 23.5729C145.5 23.5729 155.971 37.6563 143.294 49.2643C143.294 49.2643 146.129 39.8709 143.171 41.6032C140.213 43.3355 138.693 43.8996 138.693 43.8996Z" fill="#2F2E41"/>
<path d="M112.109 128.763L109.973 130.81L94.5378 163.906L92.8482 218.648H118.781L130.946 191.539L139.143 218.387H162.46L167.866 169.651L153.335 135.183L112.109 128.763Z" fill="#2F2E41"/>
<path d="M138.974 61.0104H121.655L102.817 71.1479L107.21 90.747C107.21 90.747 106.196 102.574 108.561 111.36C110.927 120.146 109.913 131.635 109.913 131.635L153.335 135.183L154.687 95.3089L154.011 68.6135L138.974 61.0104Z" fill="#E6E6E6"/>
<path d="M105.689 71.3169C105.689 71.3169 95.2136 71.6548 93.524 78.4131C91.8344 85.1715 90.4828 119.977 90.4828 119.977C90.4828 119.977 91.4965 140.63 102.817 130.81C114.137 120.991 113.123 91.254 113.123 91.254L105.689 71.3169Z" fill="#E6E6E6"/>
<path d="M207.294 243.717H145.562C143.471 243.717 141.77 242.017 141.77 239.926V176.109C141.77 174.018 143.471 172.317 145.562 172.317H207.294C209.385 172.317 211.086 174.018 211.086 176.109V239.926C211.086 242.017 209.385 243.717 207.294 243.717Z" fill="white"/>
<path d="M207.294 244.107H145.561C143.256 244.107 141.38 242.232 141.38 239.926V176.109C141.38 173.803 143.256 171.927 145.561 171.927H207.294C209.6 171.927 211.475 173.803 211.475 176.109V239.926C211.475 242.232 209.6 244.107 207.294 244.107ZM145.561 172.707C143.686 172.707 142.159 174.233 142.159 176.109V239.926C142.159 241.802 143.686 243.328 145.561 243.328H207.294C209.17 243.328 210.696 241.802 210.696 239.926V176.109C210.696 174.233 209.17 172.707 207.294 172.707H145.561Z" fill="#3F3D56"/>
<path d="M178.864 226.952H173.776C173.156 226.952 172.653 226.563 172.653 226.085V204.179C172.653 203.701 173.156 203.312 173.776 203.312H178.864C179.483 203.312 179.987 203.701 179.987 204.179V226.085C179.987 226.563 179.483 226.952 178.864 226.952Z" fill="#6C63FF"/>
<path d="M162.043 214.043C161.542 214.043 161.135 214.357 161.135 214.744V226.061C161.135 226.447 161.542 226.761 162.043 226.761H167.131C167.631 226.761 168.038 226.447 168.038 226.061V214.744C168.038 214.357 167.631 214.043 167.131 214.043H162.043Z" fill="#6C63FF"/>
<path d="M190.597 226.952H185.509C184.89 226.952 184.386 226.563 184.386 226.085V190.185C184.386 189.707 184.89 189.318 185.509 189.318H190.597C191.217 189.318 191.721 189.707 191.721 190.185V226.085C191.721 226.563 191.217 226.952 190.597 226.952Z" fill="#6C63FF"/>
<path d="M81.1071 69.5903H75.2951C74.5875 69.5903 74.0118 69.146 74.0118 68.5997V43.577C74.0118 43.0308 74.5875 42.5864 75.2951 42.5864H81.1071C81.8147 42.5864 82.3903 43.0308 82.3903 43.577V68.5997C82.3903 69.146 81.8147 69.5903 81.1071 69.5903Z" fill="#6C63FF"/>
<path d="M61.8922 54.8441C61.3205 54.8441 60.8553 55.2032 60.8553 55.6444V68.5717C60.8553 69.013 61.3205 69.3721 61.8922 69.3721H67.7042C68.2759 69.3721 68.741 69.013 68.741 68.5717V55.6444C68.741 55.2032 68.2759 54.8441 67.7042 54.8441H61.8922Z" fill="#6C63FF"/>
<path d="M94.5099 69.5902H88.6979C87.9903 69.5902 87.4147 69.1459 87.4147 68.5997V27.5919C87.4147 27.0457 87.9903 26.6013 88.6979 26.6013H94.5099C95.2176 26.6013 95.7932 27.0456 95.7932 27.5919V68.5997C95.7932 69.1459 95.2176 69.5902 94.5099 69.5902Z" fill="#6C63FF"/>
<path d="M166.964 181.602C169.974 181.314 172.047 177.246 171.594 172.514C171.439 170.622 170.833 168.794 169.827 167.183L169.247 161.828L169.335 161.801L170.794 136.409C171.133 130.505 168.796 124.703 164.293 120.87C161.615 118.589 158.757 117.434 156.92 120.316C153.871 125.097 157.82 144.807 160.413 156.013L161.419 167.988C160.736 169.761 160.487 171.671 160.694 173.559C161.146 178.29 163.953 181.891 166.964 181.602Z" fill="#FFB6B6"/>
<path d="M150.294 69.2893C150.294 69.2893 159.08 65.9102 163.135 76.0477C167.19 86.1852 171.583 136.197 171.583 136.197L150.97 132.48L150.294 69.2893Z" fill="#E6E6E6"/>
<path d="M29.6533 64.3309H17.823C17.0335 64.3309 16.3911 63.6885 16.3911 62.899C16.3911 62.1095 17.0335 61.4674 17.823 61.4674H29.6533C30.4428 61.4674 31.0849 62.1095 31.0849 62.899C31.0849 63.6885 30.4428 64.3309 29.6533 64.3309Z" fill="#E6E6E6"/>
<path d="M29.6533 44.0353H17.823C17.0335 44.0353 16.3911 43.3929 16.3911 42.6035C16.3911 41.814 17.0335 41.1719 17.823 41.1719H29.6533C30.4428 41.1719 31.0849 41.814 31.0849 42.6035C31.0849 43.393 30.4428 44.0353 29.6533 44.0353Z" fill="#E6E6E6"/>
<path d="M29.6533 29.3992H17.823C17.0335 29.3992 16.3911 28.7568 16.3911 27.9674C16.3911 27.1779 17.0335 26.5358 17.823 26.5358H29.6533C30.4428 26.5358 31.0849 27.1779 31.0849 27.9674C31.0849 28.7568 30.4428 29.3992 29.6533 29.3992Z" fill="#E6E6E6"/>
<path d="M15.9166 69.661C15.9166 69.9182 16.1231 70.1248 16.3803 70.1248H95.9929C96.2501 70.1248 96.4567 69.9182 96.4567 69.661C96.4567 69.4038 96.2501 69.1973 95.9929 69.1973H16.3803C16.1231 69.1973 15.9166 69.4038 15.9166 69.661Z" fill="#3F3D56"/>
<path d="M169.46 189.69C169.46 189.947 169.666 190.154 169.924 190.154H249.536C249.793 190.154 250 189.947 250 189.69C250 189.433 249.793 189.226 249.536 189.226H169.924C169.666 189.226 169.46 189.433 169.46 189.69Z" fill="#3F3D56"/>
<path d="M146.078 227.491C146.078 227.748 146.284 227.955 146.541 227.955H226.154C226.411 227.955 226.618 227.748 226.618 227.491C226.618 227.234 226.411 227.027 226.154 227.027H146.541C146.284 227.027 146.078 227.234 146.078 227.491Z" fill="#3F3D56"/>
<path d="M92.5418 67.3165C89.5315 67.6047 87.4586 71.6726 87.9115 76.4044C88.0665 78.2971 88.6725 80.1251 89.6788 81.7355L90.259 87.0909L90.1701 87.1175L88.7117 112.51C88.3726 118.414 90.7098 124.215 95.2125 128.049C97.8911 130.33 100.749 131.484 102.586 128.603C105.635 123.821 101.686 104.111 99.0922 92.9054L98.0867 80.9307C98.7697 79.1581 99.0182 77.2477 98.8114 75.3594C98.3593 70.6292 95.5521 67.0283 92.5418 67.3165Z" fill="#FFB6B6"/>
</g>
<defs>
<clipPath id="clip0_120_1334">
<rect width="250" height="244.107" fill="white"/>
</clipPath>
</defs>
</svg>
