<svg width="24" height="24" viewBox="0 0 24 24" fill="none" xmlns="http://www.w3.org/2000/svg">
<path fill-rule="evenodd" clip-rule="evenodd" d="M18.9736 12.75C18.9427 9.71498 21.6136 8.25225 21.7342 8.18293C20.2344 6.11763 17.8944 5.83491 17.061 5.80186C15.0718 5.61424 13.1788 6.90341 12.1688 6.90341C11.1616 6.90341 9.60203 5.83044 7.95351 5.86095C5.78288 5.8893 3.78339 7.04456 2.66582 8.86825C0.413677 12.5413 2.09014 17.9811 4.28642 20.9609C5.35836 22.4159 6.6396 24.0574 8.31965 23.9981C9.94027 23.9384 10.5505 23.0164 12.505 23.0164C14.4611 23.0164 15.0105 23.9981 16.7246 23.9678C18.4637 23.9384 19.5695 22.4816 20.6348 21.0206C21.8663 19.3283 22.3734 17.69 22.403 17.6049C22.3655 17.5922 19.0087 16.3817 18.9735 12.75L18.9736 12.75Z" fill="black"/>
<path fill-rule="evenodd" clip-rule="evenodd" d="M15.759 3.83337C16.6519 2.81691 17.2509 1.40643 17.0868 0C15.8017 0.0479544 14.2435 0.805743 13.323 1.81902C12.4956 2.7182 11.7714 4.15404 11.9678 5.53102C13.4014 5.63572 14.8658 4.84786 15.759 3.83337Z" fill="black"/>
</svg>
