<svg width="17" height="20" viewBox="0 0 17 20" fill="none" xmlns="http://www.w3.org/2000/svg">
<path d="M3.49169 20H15.5046C15.994 20 16.3726 19.6214 16.3726 19.132C16.3726 18.7165 16.0863 18.4118 15.7355 18.2456C14.5997 17.7378 14.3781 16.1681 15.5323 15.0693C16.0032 14.6537 16.3633 14.1921 16.3633 13.2595V3.03786C16.3633 1.0434 15.3384 0 13.3532 0H3.51016C1.53416 0 0.5 1.03416 0.5 3.03786V16.9898C0.5 18.9658 1.53416 20 3.49169 20ZM13.187 1.83749C14.0826 1.83749 14.5259 2.3084 14.5259 3.15789V12.9732C14.5259 13.4257 14.2673 13.675 13.8056 13.675H4.73823V1.83749H13.187ZM2.33749 13.9982V3.15789C2.33749 2.39151 2.6976 1.93906 3.42705 1.85596V13.6842C3.01154 13.7211 2.65143 13.8319 2.33749 13.9982ZM3.741 18.2641C2.753 18.2641 2.23592 17.7008 2.23592 16.8329C2.23592 15.9926 2.82687 15.4109 3.80563 15.4109H13.0208C13.1223 15.4109 13.2239 15.4017 13.3163 15.3832C12.8546 16.362 12.91 17.4238 13.4086 18.2641H3.741Z" fill="#1C1C1E"/>
</svg>
