<svg width="258" height="206" viewBox="0 0 258 206" fill="none" xmlns="http://www.w3.org/2000/svg">
<g clip-path="url(#clip0_120_1333)">
<path d="M172.387 45.1225C172.349 45.1289 172.293 45.1385 172.224 45.1499C170.882 45.3726 162.765 46.6273 154.581 43.504C151.114 42.1808 152.297 41.851 144.576 37.2509C135.523 31.8578 133.2 31.8955 132.526 29.3808C131.18 24.3593 138.367 16.4654 143.125 16.9852C144.377 17.122 145.719 17.8702 147.805 17.3629C148.263 17.2514 150.27 16.7635 151.248 15.0995C152.121 13.615 151.382 12.5441 151.733 11.3266C152.654 8.13091 160.333 6.53607 167.065 7.66291C170.937 8.31103 173.949 10.0804 179.814 13.5928C190.023 19.7061 195.127 22.7628 196.274 27.446C197.362 31.8848 194.752 33.7974 196.65 38.549C198.417 42.9733 201.224 42.6778 202.19 46.2569C203.744 52.0163 197.975 58.3373 195.572 60.9705C192.937 63.8574 190.417 65.4418 187.072 67.5453C182.873 70.1855 180.773 71.5056 178.249 71.3713C173.672 71.1278 160.073 71.9567 159.895 68.1622C159.829 66.7402 143.335 67.9046 151.457 52.5949C152.453 50.717 171.968 52.7228 172.225 51.6441" fill="#2F2E41"/>
<path d="M180.286 54.9192L194.313 75.8825L154.048 84.0409L156.612 57.7956L180.286 54.9192Z" fill="#FFB6B6"/>
<path opacity="0.1" d="M180.286 54.9192L194.313 75.8825L154.048 84.0409L156.612 57.7956L180.286 54.9192Z" fill="black"/>
<path d="M151.032 70.4437L194.46 68.6307L213.762 79.2064L212.857 147.193L233.064 185.567L131.127 166.229L138.968 137.221L135.349 76.1848L151.032 70.4437Z" fill="#6C63FF"/>
<path d="M1.16958 202.519C-0.21691 200.33 -0.380652 197.624 0.731661 195.282L17.2608 160.487C18.4944 157.89 21.1464 156.212 24.0169 156.212H232.793C235.583 156.212 238.122 157.75 239.419 160.226L257.135 194.063C258.36 196.402 258.28 199.149 256.92 201.411C255.56 203.674 253.175 205.031 250.539 205.042L7.51713 206H7.48671C4.91045 206 2.55045 204.7 1.16958 202.519Z" fill="white"/>
<path d="M1.16958 202.519C-0.21691 200.33 -0.380652 197.624 0.731661 195.282L17.2608 160.487C18.4944 157.89 21.1464 156.212 24.0169 156.212H232.793C235.583 156.212 238.122 157.75 239.419 160.226L257.135 194.063C258.36 196.402 258.28 199.149 256.92 201.411C255.56 203.674 253.175 205.031 250.539 205.042L7.51713 206H7.48671C4.91045 206 2.55045 204.7 1.16958 202.519ZM24.0169 156.999C21.4476 156.999 19.0741 158.501 17.97 160.825L1.44082 195.62C0.445212 197.716 0.591697 200.138 1.83273 202.098C3.06877 204.05 5.18079 205.213 7.48684 205.213H7.51407L250.536 204.255C252.895 204.246 255.03 203.031 256.247 201.005C257.464 198.98 257.536 196.521 256.44 194.428L238.723 160.591C237.563 158.375 235.291 156.999 232.793 156.999H24.0169Z" fill="#3F3D56"/>
<path d="M213.355 192.698L127.199 186.763C125.927 186.676 124.913 185.816 124.615 184.574C124.317 183.332 124.831 182.105 125.924 181.448L144.976 169.995C145.459 169.704 146.014 169.563 146.577 169.59L221.101 172.984C222.086 173.029 222.966 173.568 223.455 174.426C223.944 175.284 223.96 176.317 223.497 177.19L216.077 191.184C215.579 192.123 214.603 192.705 213.551 192.705C213.486 192.705 213.421 192.702 213.355 192.698Z" fill="#3F3D56"/>
<path d="M126.452 183.301L212.254 189.193L219.04 174.538L145.468 171.647L126.452 183.301Z" fill="white"/>
<path d="M168.674 61.9808C182.914 61.9808 194.458 50.4152 194.458 36.1484C194.458 21.8816 182.914 10.316 168.674 10.316C154.435 10.316 142.891 21.8816 142.891 36.1484C142.891 50.4152 154.435 61.9808 168.674 61.9808Z" fill="#FFB6B6"/>
<path d="M176.979 37.8201C176.941 37.8265 176.885 37.8362 176.816 37.8475C175.474 38.0702 167.357 39.3249 159.173 36.2016C155.706 34.8785 156.889 34.5487 149.167 29.9486C140.115 24.5555 137.792 24.5931 137.118 22.0784C135.772 17.0569 142.959 9.16307 147.717 9.68281C148.969 9.81965 150.311 10.5678 152.397 10.0605C152.855 9.94905 154.862 9.46117 155.84 7.79709C156.713 6.31261 155.974 5.24176 156.325 4.02427C157.246 0.828542 164.924 -0.766298 171.657 0.360543C175.529 1.00866 178.54 2.77807 184.406 6.29042C194.615 12.4038 199.719 15.4605 200.866 20.1436C201.953 24.5824 199.344 26.4951 201.242 31.2466C203.009 35.6709 205.816 35.3754 206.782 38.9545C208.336 44.7139 202.567 51.0349 200.164 53.6681C197.529 56.555 195.009 58.1395 191.664 60.2429C187.464 62.8831 185.365 64.2032 182.841 64.0689C178.264 63.8254 173.712 59.67 173.535 55.8756C173.468 54.4536 174.06 54.0271 175.526 49.1385C176.136 47.1018 176.56 45.4205 176.817 44.3417" fill="#2F2E41"/>
<path d="M194.651 176.223C196.31 176.289 197.572 177.778 197.664 179.392C197.759 181.066 196.597 182.609 195.201 183.406C193.565 184.34 191.524 184.49 189.682 184.329C188.026 184.184 186.224 183.668 185.158 182.298C184.261 181.145 183.931 179.402 184.694 178.094C185.45 176.796 187.058 176.438 188.404 176.958C189.828 177.509 190.723 178.807 190.732 180.34C190.742 182.039 189.762 183.61 188.387 184.549C186.905 185.563 185.039 185.889 183.274 185.885C181.351 185.88 179.436 185.476 177.667 184.725C176.01 184.021 174.354 183.007 173.169 181.629C172.058 180.336 171.393 178.543 172.009 176.867C172.515 175.492 173.793 174.65 175.257 174.766C176.596 174.873 177.952 175.652 178.546 176.892C179.217 178.291 178.916 179.971 178.062 181.222C177.076 182.666 175.518 183.478 173.787 183.596C171.945 183.72 170.121 183.065 168.606 182.051C167.203 181.112 165.97 179.911 164.463 179.13C163.738 178.754 162.95 178.515 162.129 178.516C161.084 178.517 160.079 178.861 159.063 179.061C158.201 179.23 157.313 179.328 156.463 179.052C155.736 178.816 155.055 178.384 154.597 177.764C154.163 177.177 154.011 176.442 154.257 175.745C154.449 175.199 155.324 175.434 155.129 175.986C154.68 177.26 156.22 178.196 157.298 178.313C158.116 178.402 158.96 178.165 159.749 177.98C160.572 177.787 161.413 177.59 162.263 177.611C165.276 177.685 167.267 180.265 169.696 181.665C172.25 183.137 175.99 183.239 177.554 180.315C178.122 179.253 178.239 177.841 177.459 176.848C176.809 176.022 175.654 175.527 174.607 175.687C173.293 175.888 172.638 177.143 172.686 178.39C172.744 179.916 173.806 181.155 174.938 182.069C177.458 184.104 180.801 185.14 184.024 184.958C185.537 184.873 187.144 184.479 188.319 183.47C189.334 182.598 190.027 181.18 189.783 179.822C189.572 178.647 188.588 177.756 187.4 177.638C186.184 177.517 185.233 178.381 185.179 179.598C185.118 180.967 185.93 182.11 187.106 182.733C188.438 183.439 190.053 183.527 191.53 183.45C193.097 183.368 194.731 182.954 195.828 181.758C196.764 180.738 197.118 179.224 196.256 178.044C195.875 177.523 195.303 177.156 194.651 177.13C194.071 177.107 194.068 176.2 194.651 176.223Z" fill="#6C63FF"/>
<path d="M153.416 175.252L153.877 172.395L179.474 123.378C179.898 122.567 180.902 122.252 181.713 122.676C182.523 123.101 182.837 124.107 182.413 124.919L156.828 173.914L154.736 175.945C154.489 176.183 154.132 176.235 153.827 176.075C153.522 175.916 153.361 175.592 153.416 175.252Z" fill="#3F3D56"/>
<path d="M170.864 144.067C173.751 144.612 176.467 145.842 178.783 147.654L178.914 147.682L178.94 147.552L206.837 151.929L204.816 114.753L225.959 103.151L220.962 165.992C219.88 170.005 215.722 172.349 211.737 171.193L176.224 160.959L176.313 160.521L176.189 160.488C173.351 161.255 170.371 161.33 167.498 160.706C160.291 159.244 155.202 154.334 156.13 149.739C157.059 145.144 163.654 142.605 170.864 144.067Z" fill="#FFB6B6"/>
<path d="M189.937 85.8538L213.762 79.2063C213.762 79.2063 226.278 88.4222 227.786 98.3935C227.965 99.5794 228.463 154.821 227.937 156.257C224.04 166.899 202.603 149.912 202.603 149.912L189.937 85.8538Z" fill="#6C63FF"/>
<path d="M86.5928 185.141L84.1228 183.02C83.7551 182.704 83.3079 182.494 82.8297 182.414L27.795 173.225C26.5389 173.015 25.611 172.106 25.3733 170.852C25.1358 169.599 25.6665 168.412 26.7586 167.756L46.3925 155.953C47.0486 155.559 47.8209 155.434 48.5679 155.604L118.348 171.399C119.704 171.705 120.609 172.804 120.654 174.197C120.698 175.589 119.865 176.743 118.53 177.137L89.3545 185.734C89.0777 185.816 88.7954 185.856 88.5155 185.856C87.8191 185.856 87.1375 185.609 86.5928 185.141Z" fill="#3F3D56"/>
<path d="M60.0893 116.599C62.8173 117.693 65.244 119.426 67.1663 121.653L67.2887 121.706L67.3397 121.584L93.8635 131.29L122.183 85.3485L137.84 95.0701L105.003 147.826C103.166 151.553 98.6347 153.046 94.9477 151.139L62.0848 134.211L62.2564 133.798L62.1411 133.742C59.2084 133.943 56.2702 133.439 53.5723 132.269C46.784 129.438 42.7398 123.633 44.5391 119.305C46.3383 114.977 53.299 113.765 60.0893 116.599Z" fill="#FFB6B6"/>
<path d="M152.564 93.6425L140.037 74.8752C140.037 74.8752 125.131 77.8312 118.991 85.8227C118.224 86.8216 91.8593 125.131 91.6894 126.803C90.5005 138.505 120.802 143.989 120.802 143.989L152.564 93.6425Z" fill="#6C63FF"/>
<path d="M85.2297 185.705L22.1429 176.968C20.0314 176.676 18.2888 175.161 17.703 173.107L3.21361 122.298C2.72264 120.576 3.08917 118.793 4.21924 117.405C5.34932 116.018 7.01895 115.301 8.80183 115.437L72.3618 120.316C74.6612 120.492 76.5915 122.115 77.1654 124.353L91.1815 179.019C91.6287 180.763 91.1815 182.607 89.9848 183.952C88.9544 185.109 87.4933 185.756 85.9702 185.756C85.7246 185.756 85.4771 185.739 85.2297 185.705Z" fill="#3F3D56"/>
<path d="M71.1675 81.6335C71.5363 82.0399 72.8744 81.6259 75.5358 80.7813C77.5588 80.1392 77.8704 79.9056 78.0628 79.7381C78.7393 79.1492 78.9166 78.5299 79.5867 75.7942C80.7894 70.884 80.8265 70.3964 81.4441 69.3544C81.6568 68.9956 82.194 68.1397 82.063 68.0336C81.9284 67.9246 81.347 68.8163 80.2725 69.1532C79.2253 69.4815 78.7539 68.9555 77.8599 69.0895C76.7042 69.2626 76.017 70.3625 74.9392 72.1428C73.9847 73.7193 73.8646 74.3536 72.5264 77.4861C72.1473 78.3735 71.842 79.0603 71.6076 79.6031C68.9802 82.06 66.3744 84.5493 63.7922 87.0602C63.8419 86.984 63.8888 86.912 63.9294 86.8495C65.0732 85.09 65.2286 84.1468 65.212 83.44C65.1852 82.2949 64.6393 81.4227 63.5487 79.725C62.4799 78.0614 61.4673 76.9636 60.2472 75.6537C58.6479 73.9367 57.8483 73.0782 57.5299 73.1347C55.2553 73.5379 54.6471 89.0547 57.5089 91.8298C57.1072 92.1173 56.7746 92.4184 56.534 92.7146C54.0843 89.9896 49.8877 86.945 45.2389 86.5702C42.3729 86.339 40.7911 87.2401 40.2993 87.5496C38.026 88.9801 36.6743 91.8433 37.3532 92.6512C37.9862 93.4046 39.8144 91.6919 43.3975 91.7863C45.8977 91.8521 47.8507 92.7609 49.0101 93.3004C51.4424 94.4322 52.3319 95.5448 54.1252 96.3071C53.2846 97.0011 52.6185 97.8673 52.2003 98.6753C52.0554 98.8248 51.9111 98.9752 51.7663 99.125C49.916 98.0803 47.8323 97.3139 45.6483 97.1378C42.7822 96.9067 41.2004 97.8078 40.7086 98.1173C39.1765 99.0815 38.0662 100.695 37.7109 101.893C37.4786 101.939 37.2637 101.993 37.067 102.05C36.3724 100.478 34.3055 98.8193 32.3837 97.9835C29.0756 96.5448 24.7784 96.9261 24.3186 98.2943C24.3039 98.3378 24.3003 98.3808 24.2938 98.424C24.6564 95.4925 25.1488 92.5816 25.7639 89.6918C25.7848 89.7742 25.811 89.8577 25.8459 89.9455C26.6625 92.0005 28.8692 93.9729 31.8772 94.9962C34.238 95.7993 35.2268 95.3831 35.478 95.2668C35.7179 95.1557 36.7543 94.71 37.0083 93.8237C37.4791 92.1806 34.5959 87.3246 32.7774 88.9534C26.9343 94.1867 26.1325 89.9491 25.8641 89.2358C26.3609 86.9512 26.9327 84.6796 27.574 82.4211C27.585 82.4348 27.5946 82.4484 27.6061 82.4623C28.8827 84.0135 31.3394 85.1063 34.2265 85.1546C36.4924 85.1925 37.2327 84.557 37.4179 84.3864C37.5947 84.2235 38.3681 83.5493 38.3421 82.7115C38.2939 81.1585 35.5363 79.8936 33.3299 79.6743C31.2967 79.4721 29.1073 80.0958 28.0212 80.8856C28.5262 79.1942 29.0694 77.5102 29.6487 75.8335C31.1326 76.4407 33.2345 76.359 35.2994 75.4343C37.0023 74.6717 37.3334 73.9394 37.4121 73.7476C37.4873 73.5644 37.8296 72.7917 37.5189 72.1761C36.943 71.0348 34.4468 71.0541 32.7253 71.6607C32.0162 71.9105 31.3424 72.2948 30.7648 72.7293C31.7916 69.9811 32.9109 67.2524 34.1146 64.5439L32.9082 64.2417C31.3705 67.7017 30.0299 71.2068 28.8777 74.7507C28.7344 73.7114 28.3754 72.6041 27.9027 71.7045C26.5127 69.0595 23.5438 67.0751 22.5398 67.719C22.3389 67.8477 22.2544 68.0575 22.1779 68.3072C21.5625 70.3166 22.026 73.0936 23.6469 75.645C24.919 77.6474 25.8988 77.9286 26.154 77.9921C26.3695 78.0458 27.2014 78.276 27.8852 77.9795C27.4253 79.5583 27.0001 81.144 26.6124 82.7367C26.1458 81.5761 25.2263 80.3394 24.2539 79.4842C22.0115 77.5124 18.5305 76.7233 17.8227 77.6843C17.6812 77.8766 17.6772 78.1027 17.6949 78.3634C17.8376 80.4604 19.2619 82.8875 21.6864 84.6892C23.5894 86.1032 24.6046 86.0146 24.8657 85.9825C25.0193 85.9636 25.4836 85.9173 25.9313 85.7145C25.5157 87.6497 25.1525 89.5944 24.8386 91.5472C24.2107 89.3626 22.0777 86.6373 20.0646 87.5043C16.4925 89.0429 12.2934 86.6795 11.8312 87.713C11.711 87.9819 11.8105 88.2592 11.9256 88.56C12.8511 90.9811 15.4071 93.3269 18.9167 94.5726C21.6712 95.5502 22.8365 95.0777 23.1326 94.9453C23.3289 94.8575 23.9767 94.5863 24.4592 94.0832C24.1123 96.5925 23.8464 99.1146 23.6592 101.648C22.9144 100.018 20.8166 98.3019 18.8527 97.4169C15.4079 95.8645 10.9023 96.2046 10.4019 97.6311C10.3019 97.9164 10.3808 98.1917 10.4988 98.5005C11.4488 100.985 14.0722 103.393 17.6744 104.672C20.5017 105.675 21.6977 105.19 22.0017 105.054C22.2238 104.955 23.0082 104.627 23.5084 104.003C23.4443 105.174 23.3948 106.347 23.3635 107.522C23.3546 107.857 23.3494 108.192 23.3429 108.526C23.3024 108.592 23.2669 108.659 23.2434 108.73C23.1468 109.017 23.2125 109.293 23.3258 109.595C23.3233 109.808 23.322 110.02 23.3206 110.233C22.6903 109.66 21.9385 108.8 21.0342 107.573C20.2182 106.466 19.4433 107.278 18.9456 108.221C18.1653 108.047 17.4209 108.154 16.8356 108.702C12.9101 112.376 8.50736 110.427 8.44507 111.522C8.4271 111.838 8.59608 112.09 8.80909 112.362C10.5231 114.556 13.8878 116.156 17.8852 116.325C21.0225 116.457 22.0703 115.603 22.3327 115.374C22.4249 115.293 22.6315 115.119 22.8553 114.874C23.0349 115.017 23.2098 115.148 23.3852 115.267C23.4542 117.37 23.5777 119.47 23.7607 121.567C23.6119 121.581 23.4696 121.605 23.3635 121.616C21.8439 121.771 21.3319 119.717 19.0362 118.966C18.2739 118.717 16.8052 118.445 16.0312 118.966C15.9197 119.042 15.5394 119.324 14.9493 119.569C14.6005 119.713 14.3341 119.78 14.2281 119.809C13.2862 120.068 12.4139 120.776 11.8241 121.255C10.7154 122.155 10.1611 122.605 9.90081 123.422C9.81893 123.68 9.58854 124.403 9.90081 125.108C10.0484 125.442 10.3908 125.937 11.7039 126.433C12.4843 126.728 14.7605 127.588 17.4736 126.674C18.0914 126.466 17.6198 126.54 19.9978 125.349C21.8688 124.412 22.963 123.964 23.1231 123.061C23.1795 122.744 23.1227 122.356 23.3635 122.218C23.4974 122.141 23.6592 122.179 23.8208 122.237C23.9782 123.923 24.1748 125.606 24.4131 127.285H22.2722C19.4295 127.285 16.8792 128.87 15.6169 131.422L7.60904 147.608C7.10349 148.63 6.83622 149.773 6.83622 150.913V192.534C6.83622 196.637 10.1685 199.976 14.2643 199.976H32.9559C37.0518 199.976 40.384 196.637 40.384 192.534V154.209C40.384 153.275 40.2113 152.36 39.8705 151.49L32.2386 132.008C31.3129 129.646 29.3081 127.974 26.9116 127.457C27.6803 126.544 28.4502 125.632 29.2261 124.722C30.203 125.194 31.2777 125.582 32.4332 125.854C35.49 126.574 36.6792 125.932 36.9801 125.756C37.2674 125.588 38.5128 124.903 38.7239 123.761C38.7465 123.639 38.7552 123.515 38.7536 123.39C41.8848 125.94 43.5181 127.197 44.7115 126.778C45.7375 126.418 46.3232 125.237 46.6586 124.178C47.0089 124.226 47.3803 124.276 47.7762 124.329C52.0647 124.903 54.2257 125.169 55.0524 124.151C56.1964 122.743 55.1105 120.027 54.8112 119.279C54.1607 117.652 53.16 116.662 52.5383 116.06C51.7311 115.278 49.4304 113.049 45.8083 112.752C45.0209 112.687 44.3136 112.737 43.5929 112.888C43.3419 112.658 43.0769 112.432 42.7851 112.218C42.2291 111.81 41.68 111.508 41.0891 111.272C41.9956 110.276 42.9047 109.285 43.818 108.297C43.9626 108.363 44.0998 108.426 44.2259 108.485C47.218 109.877 47.8753 111.241 50.7527 111.958C52.0582 112.284 53.5361 112.653 53.9019 112.098C54.5519 111.114 51.793 107.062 47.5296 104.321C47.8171 104.016 48.1053 103.713 48.3934 103.408C48.7833 103.572 49.1268 103.732 49.4194 103.868C52.4115 105.26 53.0688 106.624 55.9463 107.341C57.2516 107.667 58.7295 108.036 59.0955 107.481C59.6754 106.603 57.5414 103.282 54.0466 100.629C55.0066 100.324 56.2795 99.9854 57.9279 100.029C60.4281 100.095 62.381 101.003 63.5405 101.543C66.5325 102.935 67.1899 104.299 70.0673 105.016C71.3727 105.342 72.8506 105.711 73.2164 105.156C74.1827 103.693 67.6198 95.4458 59.7692 94.8127C59.1599 94.7636 58.6121 94.7678 58.1169 94.8044C58.0485 94.6908 57.9742 94.5742 57.8959 94.4556C60.5521 94.5412 65.7396 93.7803 70.1549 96.8861C71.428 97.7816 73.9013 99.8882 78.0404 101.619C79.3633 102.172 80.0285 102.444 80.2117 102.217C80.8676 101.404 75.4144 94.712 67.7423 91.4154C64.7005 90.1084 62.8211 89.9847 61.4844 90.1827C61.6904 89.9474 61.8912 89.7045 62.0845 89.4606C65.0719 86.5251 68.0969 83.6202 71.1492 80.7545C71.0014 81.2122 71.0064 81.4559 71.1675 81.6335ZM32.8304 118.17C29.4561 117.075 25.3702 117.663 24.3048 118.908C24.1546 117.805 24.0241 116.699 23.9165 115.592C25.4537 116.452 27.0578 116.683 30.1005 117.09C31.3965 117.263 32.4951 117.407 33.4244 117.498C33.5492 117.837 33.6823 118.142 33.8368 118.433C33.8547 118.467 33.8739 118.499 33.8922 118.533L33.8652 118.564C33.5187 118.413 33.1716 118.28 32.8304 118.17ZM23.8654 103.343C23.9616 103.023 23.9636 102.682 23.8901 102.331C23.9951 101.059 24.1262 99.7903 24.2813 98.5258C24.2773 98.7193 24.3385 98.9131 24.422 99.123C25.3601 101.483 27.8947 103.749 31.3497 104.924C31.9942 105.144 32.5471 105.282 33.0234 105.366C32.8138 105.732 32.6533 106.089 32.5469 106.418C31.369 105.47 29.8528 104.781 28.1326 105.512C27.6644 105.711 27.3865 106.439 27.1452 107.31C25.5559 107.338 24.228 107.67 23.5955 108.232C23.5989 107.997 23.5977 107.763 23.6039 107.529C23.6396 106.19 23.7054 104.857 23.7982 103.527C23.8235 103.467 23.8463 103.406 23.8654 103.343ZM23.6 110.226C23.6684 110.366 23.7435 110.506 23.8214 110.646C23.7507 110.593 23.6783 110.537 23.604 110.477C23.602 110.393 23.6015 110.309 23.6 110.226ZM26.3134 127.354C26.1283 127.33 25.9416 127.312 25.7531 127.301C25.3181 125.137 24.9164 122.975 24.5802 120.809C25.4643 122.215 26.9074 123.502 28.7456 124.478C27.9299 125.434 27.121 126.394 26.3134 127.354ZM40.555 111.08C39.4043 110.71 38.054 110.532 36.1852 110.315C35.7116 109.656 35.2234 109.17 34.8626 108.82C34.6671 108.631 34.367 108.255 33.9783 107.816C34.9856 107.492 36.489 106.915 38.6133 106.971C40.5441 107.022 42.1464 107.575 43.3109 108.073C42.3885 109.071 41.4706 110.074 40.555 111.08ZM47.0764 104.038C45.9457 103.353 44.7194 102.767 43.4284 102.355C43.5539 102.354 43.6767 102.351 43.8068 102.354C45.4078 102.396 46.7827 102.784 47.8702 103.199C47.6056 103.479 47.3406 103.758 47.0764 104.038Z" fill="#CCCCCC"/>
</g>
<defs>
<clipPath id="clip0_120_1333">
<rect width="258" height="206" fill="white"/>
</clipPath>
</defs>
</svg>
