<svg width="24" height="24" viewBox="0 0 24 24" fill="none" xmlns="http://www.w3.org/2000/svg">
<path d="M12 24C18.5634 24 24 18.575 24 12C24 5.43659 18.5634 0 11.9884 0C5.42498 0 0 5.43659 0 12C0 18.575 5.43659 24 12 24ZM12 13.9051C9.72314 13.8935 7.95741 11.9884 7.95741 9.47919C7.94579 7.10939 9.73475 5.13456 12 5.13456C14.2536 5.13456 16.031 7.10939 16.031 9.47919C16.031 11.9884 14.2652 13.9284 12 13.9051ZM12 22.0368C9.39787 22.0368 6.63311 20.9564 4.87899 19.0629C6.20329 17.0649 8.8635 15.9148 12 15.9148C15.1016 15.9148 17.7735 17.0416 19.1094 19.0629C17.3553 20.9564 14.6021 22.0368 12 22.0368Z" fill="white"/>
</svg>
